<?xml version="1.0" encoding="UTF-8"?>
<svg width="74px" height="55px" viewBox="0 0 74 55" version="1.1" xmlns="http://www.w3.org/2000/svg" xmlns:xlink="http://www.w3.org/1999/xlink">
    <!-- Generator: Sketch 43.2 (39069) - http://www.bohemiancoding.com/sketch -->
    <title>logo</title>
    <desc>Created with Sketch.</desc>
    <defs></defs>
    <g id="Page-1" stroke="none" stroke-width="1" fill="none" fill-rule="evenodd">
        <g id="Artboard" transform="translate(-314.000000, -305.000000)" fill="#1F81E2">
            <g id="Group" transform="translate(314.000000, 305.000000)">
                <polygon id="4" transform="translate(28.000000, 10.000000) rotate(-270.000000) translate(-28.000000, -10.000000) " points="36 18.3950617 33.3670886 18.3950617 33.3670886 22 29.9578059 22 29.9578059 18.3950617 20 18.3950617 20 15.1851852 28.6751055 -2 32.4725738 -2 23.8312236 15.1851852 29.9578059 15.1851852 29.9578059 9.58847737 33.3670886 9.58847737 33.3670886 15.1851852 36 15.1851852"></polygon>
                <path d="M17,28.4920038 C17,30.027289 16.8598936,31.3066741 16.5796767,32.3301976 C16.2994597,33.353721 15.7767552,34.2546214 15.0115473,35.0329257 C13.7397935,36.3443151 12.0639057,37 9.98383372,37 C7.92531688,37 6.26020651,36.3443151 4.98845266,35.0329257 C4.2340224,34.2546214 3.71401221,33.3510556 3.42840647,32.3222013 C3.14280073,31.293347 3,30.0166273 3,28.4920038 C3,26.9993654 3.14549508,25.7306418 3.43648961,24.6857949 C3.72748413,23.6409481 4.24479998,22.7347169 4.98845266,21.9670743 C5.35489021,21.583253 5.78059804,21.2474144 6.26558891,20.9595484 C6.75057979,20.6716825 7.31369964,20.4397939 7.95496536,20.2638758 C8.59623107,20.0879577 9.27251376,20 9.98383372,20 C11.0939239,20 12.0692799,20.1812462 12.9099307,20.5437441 C13.7505816,20.906242 14.4511134,21.3806807 15.0115473,21.9670743 C15.7659776,22.7453786 16.2859878,23.6489444 16.5715935,24.6777987 C16.8571993,25.706653 17,26.978042 17,28.4920038 Z M13.6212471,28.4920038 C13.6212471,27.4045101 13.5458052,26.4902828 13.3949192,25.7492944 C13.2440331,25.0083061 12.9314881,24.4032636 12.4572748,23.9341486 C11.842953,23.3051082 11.0184809,22.9905927 9.98383372,22.9905927 C8.98151924,22.9905927 8.16243582,23.3051082 7.52655889,23.9341486 C7.06312316,24.4032636 6.75596688,25.0083061 6.60508083,25.7492944 C6.45419478,26.4902828 6.37875289,27.4045101 6.37875289,28.4920038 C6.37875289,29.5688357 6.45419478,30.4777323 6.60508083,31.2187206 C6.75596688,31.9597089 7.06312316,32.5647515 7.52655889,33.0338664 C8.19476855,33.694892 9.01385196,34.0253998 9.98383372,34.0253998 C10.9861482,34.0253998 11.8106203,33.694892 12.4572748,33.0338664 C12.9314881,32.5647515 13.2440331,31.9597089 13.3949192,31.2187206 C13.5458052,30.4777323 13.6212471,29.5688357 13.6212471,28.4920038 Z" id="o"></path>
                <g id="Group-3" transform="translate(16.000000, 19.000000)">
                    <path d="M6.89626281,21.1303329 L12.2283064,21.1303329 L12.2283064,24.4148827 L6.71421596,24.4148827 L6.71421596,30.3173161 L23.6457171,21.9921207 L23.6457171,25.6506538 L6.71421596,34.0083694 L3.55172294,34.0083694 L3.55172294,24.4148827 L3.87568765e-15,24.4148827 L0,21.1303329 L3.506719,21.1303329 L3.506719,0.465717316 L6.83139116,0.465717316 L6.83139116,2.2543335 C7.44767493,1.50636299 8.10449384,0.986043486 8.80186758,0.693359375 C9.49924132,0.400675264 10.3236437,0.254335403 11.2750993,0.254335403 C12.118435,0.254335403 12.9049959,0.389835274 13.6348056,0.660839081 C14.3646154,0.931842887 14.9511574,1.30040254 15.3944492,1.76652908 C15.913425,2.28685639 16.3161658,2.92912578 16.6026837,3.69335651 C16.8892016,4.45758725 17.0757057,5.24890649 17.1622017,6.06733799 C17.2486977,6.88576949 17.291945,7.82613859 17.291945,8.88847351 C17.291945,9.95080843 17.2486977,10.8938875 17.1622017,11.7177391 C17.0757057,12.5415907 16.8892016,13.3383299 16.6026837,14.1079807 C16.3161658,14.8776315 15.913425,15.5226109 15.3944492,16.0429382 C14.9295334,16.5090648 14.3402884,16.8749144 13.6266967,17.1404982 C12.9131049,17.4060819 12.1400588,17.5388718 11.3075351,17.5388718 C10.3777035,17.5388718 9.55330114,17.3898219 8.83430341,17.0917177 C8.11530567,16.7936135 7.4692986,16.303104 6.89626281,15.6201744 L6.89626281,21.1303329 L6.89626281,21.1303329 Z M13.9024012,8.88847351 C13.9024012,7.73941737 13.8159065,6.7611083 13.6429146,5.95351696 C13.4699227,5.14592562 13.1266469,4.50094623 12.6130771,4.01855946 C12.0995073,3.53617268 11.3670056,3.29498291 10.4155499,3.29498291 C9.45328227,3.29498291 8.71267165,3.53888268 8.19369585,4.02668953 C7.67472004,4.51449638 7.32874135,5.15947577 7.15574942,5.96164703 C6.98275748,6.7638183 6.89626281,7.73941737 6.89626281,8.88847351 C6.89626281,10.0375297 6.98275748,11.0158387 7.15574942,11.8234301 C7.32874135,12.6310214 7.67472004,13.2814208 8.19369585,13.7746477 C8.71267165,14.2678746 9.45328227,14.5144844 10.4155499,14.5144844 C11.7994854,14.5144844 12.7266002,14.0185549 13.196922,13.0266809 C13.6672438,12.034807 13.9024012,10.6554183 13.9024012,8.88847351 Z" id="Combined-Shape"></path>
                </g>
                <path d="M51,29.4675447 L40.2772727,29.4675447 C40.2772727,30.4377596 40.441665,31.2666946 40.7704545,31.9543744 C41.0992441,32.6420542 41.5738605,33.1751314 42.1943182,33.5536218 C42.8147758,33.9321123 43.581056,34.1213547 44.4931818,34.1213547 C45.4053076,34.1213547 46.1424214,33.9934161 46.7045455,33.7375353 C47.2666695,33.4816544 47.8659059,33.0445312 48.5022727,32.4261524 L50.6181818,34.4092192 C49.7166622,35.3154639 48.8045501,35.9738142 47.8818182,36.3842897 C46.9590863,36.7947653 45.8083402,37 44.4295455,37 C43.3689341,37 42.3852318,36.8454076 41.4784091,36.5362183 C40.5715864,36.2270289 39.7840942,35.7365979 39.1159091,35.0649106 C38.4477239,34.3932234 37.9280322,33.5136461 37.5568182,32.4261524 C37.1856042,31.3386587 37,30.027289 37,28.4920038 C37,26.7114994 37.2890123,25.1868988 37.8670455,23.9181562 C38.4450786,22.6494135 39.2590857,21.6792131 40.3090909,21.0075259 C41.3590962,20.3358386 42.5893869,20 44,20 C45.4424315,20 46.6939341,20.3358386 47.7545455,21.0075259 C48.8151568,21.6792131 49.6212094,22.6200943 50.1727273,23.8301976 C50.7242452,25.0403008 51,26.4289668 51,27.9962371 L51,29.4675447 Z M47.7068182,27.1486359 C47.6749998,26.285038 47.5265165,25.5333992 47.2613636,24.8936971 C46.9962108,24.2539949 46.5799271,23.7422409 46.0125,23.3584196 C45.4450729,22.9745983 44.7742463,22.7826905 44,22.7826905 C43.2363598,22.7826905 42.5655332,22.9745983 41.9875,23.3584196 C41.4094668,23.7422409 40.9825771,24.2539949 40.7068182,24.8936971 C40.5583326,25.2348716 40.4602275,25.5360602 40.4125,25.7972719 C40.3647725,26.0584836 40.3196972,26.5089338 40.2772727,27.1486359 L47.7068182,27.1486359 Z" id="e"></path>
                <path d="M70,37 L66.5249406,37 L66.5249406,26.7611798 C66.5249406,25.9200719 66.3725273,25.2191592 66.067696,24.6584206 C65.7628647,24.0976819 65.349963,23.6852217 64.8289786,23.4210276 C64.3079942,23.1568334 63.7149677,23.0247383 63.0498812,23.0247383 C62.0079124,23.0247383 61.1516265,23.3401491 60.4809976,23.97098 C59.8103688,24.601811 59.4750594,25.5318683 59.4750594,26.7611798 L59.4750594,37 L56,37 L56,20.2102759 L59.4085511,20.2102759 L59.4085511,21.8924833 C59.9849593,21.2778276 60.6777473,20.8087552 61.4869359,20.4852521 C62.2961244,20.1617491 63.1330123,20 63.9976247,20 C65.7601038,20 67.1789337,20.5122055 68.2541568,21.5366318 C69.4180581,22.6257587 70,24.2001166 70,26.2597526 L70,37 Z" id="n"></path>
            </g>
        </g>
    </g>
</svg>